<mxfile host="app.diagrams.net" agent="Mozilla/5.0 (Windows NT 10.0; Win64; x64) AppleWebKit/537.36 (KHTML, like Gecko) Chrome/140.0.0.0 Safari/537.36 Edg/140.0.0.0" version="28.2.5">
  <diagram name="PÃ¡gina-1" id="DnivGSTH1wVu_eu1_p4u">
    <mxGraphModel dx="1418" dy="786" grid="1" gridSize="10" guides="1" tooltips="1" connect="1" arrows="1" fold="1" page="1" pageScale="1" pageWidth="827" pageHeight="1169" math="0" shadow="0">
      <root>
        <mxCell id="0" />
        <mxCell id="1" parent="0" />
        <mxCell id="1LTD-wXEes0NTq0peQYH-6" value="" style="edgeStyle=orthogonalEdgeStyle;rounded=0;orthogonalLoop=1;jettySize=auto;html=1;" edge="1" parent="1" source="1LTD-wXEes0NTq0peQYH-1" target="1LTD-wXEes0NTq0peQYH-2">
          <mxGeometry relative="1" as="geometry" />
        </mxCell>
        <mxCell id="1LTD-wXEes0NTq0peQYH-1" value="inicio" style="ellipse;whiteSpace=wrap;html=1;" vertex="1" parent="1">
          <mxGeometry x="350" y="10" width="120" height="80" as="geometry" />
        </mxCell>
        <mxCell id="1LTD-wXEes0NTq0peQYH-17" style="edgeStyle=orthogonalEdgeStyle;rounded=0;orthogonalLoop=1;jettySize=auto;html=1;entryX=0.5;entryY=0;entryDx=0;entryDy=0;" edge="1" parent="1" source="1LTD-wXEes0NTq0peQYH-2" target="1LTD-wXEes0NTq0peQYH-16">
          <mxGeometry relative="1" as="geometry" />
        </mxCell>
        <mxCell id="1LTD-wXEes0NTq0peQYH-2" value="ler numero;" style="shape=parallelogram;perimeter=parallelogramPerimeter;whiteSpace=wrap;html=1;fixedSize=1;" vertex="1" parent="1">
          <mxGeometry x="350" y="130" width="120" height="60" as="geometry" />
        </mxCell>
        <mxCell id="1LTD-wXEes0NTq0peQYH-11" value="" style="edgeStyle=orthogonalEdgeStyle;rounded=0;orthogonalLoop=1;jettySize=auto;html=1;" edge="1" parent="1" source="1LTD-wXEes0NTq0peQYH-3" target="1LTD-wXEes0NTq0peQYH-4">
          <mxGeometry relative="1" as="geometry" />
        </mxCell>
        <mxCell id="1LTD-wXEes0NTq0peQYH-14" value="SIM" style="edgeLabel;html=1;align=center;verticalAlign=middle;resizable=0;points=[];" vertex="1" connectable="0" parent="1LTD-wXEes0NTq0peQYH-11">
          <mxGeometry x="0.0571" y="-2" relative="1" as="geometry">
            <mxPoint as="offset" />
          </mxGeometry>
        </mxCell>
        <mxCell id="1LTD-wXEes0NTq0peQYH-12" value="" style="edgeStyle=orthogonalEdgeStyle;rounded=0;orthogonalLoop=1;jettySize=auto;html=1;" edge="1" parent="1" source="1LTD-wXEes0NTq0peQYH-3" target="1LTD-wXEes0NTq0peQYH-5">
          <mxGeometry relative="1" as="geometry" />
        </mxCell>
        <mxCell id="1LTD-wXEes0NTq0peQYH-15" value="NAO" style="edgeLabel;html=1;align=center;verticalAlign=middle;resizable=0;points=[];" vertex="1" connectable="0" parent="1LTD-wXEes0NTq0peQYH-12">
          <mxGeometry x="-0.0962" y="3" relative="1" as="geometry">
            <mxPoint as="offset" />
          </mxGeometry>
        </mxCell>
        <mxCell id="1LTD-wXEes0NTq0peQYH-3" value="numero MOD 2 == 0;" style="rhombus;whiteSpace=wrap;html=1;" vertex="1" parent="1">
          <mxGeometry x="300" y="320" width="196" height="80" as="geometry" />
        </mxCell>
        <mxCell id="1LTD-wXEes0NTq0peQYH-23" style="edgeStyle=orthogonalEdgeStyle;rounded=0;orthogonalLoop=1;jettySize=auto;html=1;" edge="1" parent="1" source="1LTD-wXEes0NTq0peQYH-4">
          <mxGeometry relative="1" as="geometry">
            <mxPoint x="810" y="270" as="targetPoint" />
          </mxGeometry>
        </mxCell>
        <mxCell id="1LTD-wXEes0NTq0peQYH-4" value="Escrever &quot; o numero e par&quot;;" style="shape=parallelogram;perimeter=parallelogramPerimeter;whiteSpace=wrap;html=1;fixedSize=1;" vertex="1" parent="1">
          <mxGeometry x="270" y="490" width="256" height="60" as="geometry" />
        </mxCell>
        <mxCell id="1LTD-wXEes0NTq0peQYH-22" style="edgeStyle=orthogonalEdgeStyle;rounded=0;orthogonalLoop=1;jettySize=auto;html=1;entryX=1;entryY=0;entryDx=0;entryDy=0;" edge="1" parent="1" source="1LTD-wXEes0NTq0peQYH-5" target="1LTD-wXEes0NTq0peQYH-2">
          <mxGeometry relative="1" as="geometry">
            <Array as="points">
              <mxPoint x="810" y="360" />
              <mxPoint x="810" y="110" />
              <mxPoint x="470" y="110" />
            </Array>
          </mxGeometry>
        </mxCell>
        <mxCell id="1LTD-wXEes0NTq0peQYH-5" value="Escrever &quot; o numero e impar&quot;;" style="shape=parallelogram;perimeter=parallelogramPerimeter;whiteSpace=wrap;html=1;fixedSize=1;" vertex="1" parent="1">
          <mxGeometry x="530" y="330" width="256" height="60" as="geometry" />
        </mxCell>
        <mxCell id="1LTD-wXEes0NTq0peQYH-9" value="fim;" style="ellipse;whiteSpace=wrap;html=1;" vertex="1" parent="1">
          <mxGeometry x="350" y="585" width="120" height="80" as="geometry" />
        </mxCell>
        <mxCell id="1LTD-wXEes0NTq0peQYH-18" style="edgeStyle=orthogonalEdgeStyle;rounded=0;orthogonalLoop=1;jettySize=auto;html=1;entryX=0;entryY=0.5;entryDx=0;entryDy=0;" edge="1" parent="1" source="1LTD-wXEes0NTq0peQYH-16" target="1LTD-wXEes0NTq0peQYH-9">
          <mxGeometry relative="1" as="geometry">
            <Array as="points">
              <mxPoint x="130" y="625" />
            </Array>
          </mxGeometry>
        </mxCell>
        <mxCell id="1LTD-wXEes0NTq0peQYH-19" value="SIM" style="edgeLabel;html=1;align=center;verticalAlign=middle;resizable=0;points=[];" vertex="1" connectable="0" parent="1LTD-wXEes0NTq0peQYH-18">
          <mxGeometry x="-0.4751" y="4" relative="1" as="geometry">
            <mxPoint as="offset" />
          </mxGeometry>
        </mxCell>
        <mxCell id="1LTD-wXEes0NTq0peQYH-20" style="edgeStyle=orthogonalEdgeStyle;rounded=0;orthogonalLoop=1;jettySize=auto;html=1;" edge="1" parent="1" source="1LTD-wXEes0NTq0peQYH-16" target="1LTD-wXEes0NTq0peQYH-3">
          <mxGeometry relative="1" as="geometry" />
        </mxCell>
        <mxCell id="1LTD-wXEes0NTq0peQYH-21" value="NAO" style="edgeLabel;html=1;align=center;verticalAlign=middle;resizable=0;points=[];" vertex="1" connectable="0" parent="1LTD-wXEes0NTq0peQYH-20">
          <mxGeometry x="-0.3827" y="2" relative="1" as="geometry">
            <mxPoint as="offset" />
          </mxGeometry>
        </mxCell>
        <mxCell id="1LTD-wXEes0NTq0peQYH-16" value="numero == 0;" style="rhombus;whiteSpace=wrap;html=1;" vertex="1" parent="1">
          <mxGeometry x="120" y="210" width="196" height="80" as="geometry" />
        </mxCell>
      </root>
    </mxGraphModel>
  </diagram>
</mxfile>
